<?xml version="1.0" standalone="no"?>
<!DOCTYPE svg PUBLIC "-//W3C//DTD SVG 20010904//EN"
 "http://www.w3.org/TR/2001/REC-SVG-20010904/DTD/svg10.dtd">
<svg version="1.0" xmlns="http://www.w3.org/2000/svg"
 width="484.000000pt" height="515.000000pt" viewBox="0 0 484.000000 515.000000"
 preserveAspectRatio="xMidYMid meet">
<metadata>
Created by potrace 1.16, written by Peter Selinger 2001-2019
</metadata>
<g transform="translate(0.000000,515.000000) scale(0.100000,-0.100000)"
fill="#1F487D" stroke="none">
<path d="M2289 4787 c-99 -42 -148 -87 -196 -181 -38 -73 -44 -207 -13 -288
30 -80 104 -159 188 -200 60 -30 75 -33 152 -33 153 1 267 70 332 203 30 61
33 74 33 162 0 85 -3 101 -29 154 -16 33 -48 79 -71 101 -22 23 -68 55 -101
71 -50 24 -73 29 -149 32 -76 2 -99 -1 -146 -21z"/>
<path d="M1867 3959 c-146 -50 -251 -155 -300 -302 -21 -60 -22 -82 -25 -652
-2 -324 0 -615 3 -645 6 -47 13 -61 49 -96 55 -56 107 -66 174 -32 26 12 57
38 69 57 l23 34 0 538 0 539 45 0 45 0 0 -1452 c0 -1384 1 -1455 19 -1493 19
-43 78 -100 118 -116 42 -16 131 -11 172 10 50 26 97 81 110 128 7 25 11 323
11 881 l0 842 45 0 45 0 0 -853 0 -853 25 -51 c37 -73 89 -106 175 -111 53 -3
75 0 107 16 51 27 99 81 112 129 7 26 11 505 11 1481 l0 1442 40 0 40 0 0
-524 c0 -346 4 -534 11 -553 38 -102 171 -142 250 -76 61 52 59 23 59 710 0
657 -1 678 -45 763 -57 114 -162 203 -282 240 -62 19 -92 20 -557 20 -465 -1
-494 -2 -549 -21z"/>
</g>
</svg>
